URL: https://www.plantuml.com/plantuml/svg/ZLTjJnlP5VxkNt7BVjdLBaqm4B8XJHUCdTrkkaAmwgT8gy6-nbFi6NSy9g0caac65MzLI8CJmzhKbWYKYgZcrKOYN_npVE_yXpxdpenZ9wHAH03VUywvv-KvppbybxCroyvdqg7VsIcUuIoRrdGZb9lJZQncQHaseyNdPYqpRoGYPjgqs1SnzQzB8fVI4kOZtPXbIIsTurqtIYrkMWQts42uwoB1are-RSTCm_v9mwDzFvcsoQOr8ySYV_gH_JZLroMinMrzNhSNsTz3Z8r_vCxjs5WiGZUcbU2MVpeuE3GmF8nJUi8_knaR60cFuMn2rpAcaVZOL3Gs61df4kYsEF7joCZDMxYSfeJvX-7XMuFHSHn6EqOwH-DQe7fhQ6JezdZeIIXawtQQix4VMBjP5_KIa--snCioS_-v8WzMMWtf78krDqpi7ycrFNVfYCa3Hwp_cydNcx9o9gkEkzOCXLJ5GY4a1-Pqqs1zSdTPLDz0lxW28IQhHNcytCU-YDwCXMDHbRSxlYbniYNBpZTiSeebz6Jo6oRtA_BP4lDCZ99aT877ysHuqaphyKKcdrNWs4D3_0SYbwr6-sB3BPPR3LlFS3DljneMJr2Du4dxj8h7HodKBlVQ9tMSYXhkbbZx_4ZMwanSEDAfmCU9I2mI7V5yd5oqKr0O_Ft041kR_Xa1hH-9qwjM8nAxp-J5bhmeAm__mgqSBFC4YvW9pkvRMZQb39ERRga9EUXMIh9sXf-b5RdTR3NSvGtAwbgJjSyAxLD7MNh05_IubcQQ4K-XL5-p6S8330_qfymi4qTDSV36Dwt2CaoRCqkVJTbGlpjp3xL4oY7NhXTGfxVYNwjiuEwDcNkuVl3WpwXS4B5yUYJNzsJ5KP4qQtAzx3xTamTGAwuXSL3mmXNxR_tqj4-l_EoxfI9WWv3e3RTO9JEG0L92t4WmygedvGInUa4wUqpklO1PEBaaAo_8Z0S4P3us6BqTYtcP1-9d3JEdvzXaMZEeN-V33mqaIbOtnQd3hBpHQg0biwq6UfTR-A2wNcuNMBjnrJv6VDKoy3SQWZazoRuaE-o-XcovlvuZa3z-nK0m1liIzVWACdWqfY_mH7zId-ViCPjMzl3B53250cHGML4h0tOlZqMjmZnV0DfSLhFZAQeU1zl0NX7nhCZItiTMmKTfuYybR03lvDmThnu0HhNeRXUHtA3nMWtnV1jbKKVluUBLug7nDVDTIPhnV8wbkP5J68g0OYnz9cy3G34Tpu09nUaBjtZuq92_eNC1FlISl2or6jDydbl4PUwBijmhkDjRoiJtYraJsK7-bJ5qKwVhu6hxc61yKC3N3R26g1TLDkfrSdXPxBzZ9bH0B5tjzpau3ViuzTJOi9TYWfQjBPY6cLcaylga0iQ2mx9yXQ8mMQx26RTO4eTdqYaJTFSh0071NMpLHUMAkKL7xco1AFpA4PRR9mN8CVVLAYKQxw0DtPr_T46Oa1FqYx98xegBWgmTmnG-V0YZRXQibY5372DtZ-YfPwjzQboDH2SKof7ednUpm5Pq8OjH0wKf_hSypzc-OwEUZ7IgxhEAs2pxH24EDfWyBukD0WihLY3KxBxnfTtYcLY_z8DKehj77cAO-niYFAchoEl7ShrAAaz27y7MXoR5_ZqgTYC2X2XMaXU7ula6glpV9fw1AKRbhnK0gMjISITen4fJxXnIgyULeS3v0NTd0-sa00GyxTH5TQ_Lo5hc36SebJnvI-wxhrUWFVf_lGIFeOPT5UeK-ngtIA47fXXbIDAAMDl2T4OdeI0sYd1zK3qL3YZDUzuhcYfnT69Ys2_njTr4E8wRcOm6eE6RdgIYymNgiqp09aeLAqXYnbpmMjntp7_FatdoATvHd6UPIJqDyaJbnUaP0XM7TMPcxNxTO7Bj4Y6ApKq4VcsWlM1M82Gm1qOfq6Wq70rt0gMITuzMYvZJeluKpnrq4VECZBuNZ_l6GBFPnVvSTf685qZZ1k-9qelp4v72ZZQ39KId0No36hVVu3oXFioapVWSVgDXLwwgDQVcE-3X9_ZvANXz3cyD-hmrzWCTUg1G0_5WGxpS4vkb0274My0xSOvFNufpYEt0NTxC3ROP3vlejKj0-P1vjAkcjThHr4iASDSFNAyNQFLgDygWTGoGxLAxlaJJ3yH4orWaDX7pK7fdAc_GzXITrnFSYFCEsUVCl1M74rcrURKQZqnhBcrg2UnOsYEMqd8fHhYgdNcBMg1EOvPsH8UOsHiqu2rPV8UVYXCGbY8E5SBJ8pKX5DMgszuiUeE6kFq3dAfpHJIMv_ulSTD8wbQ69powK9skw2NGyJyf7VvN7hS3KLnTh12zNJZgjWEeqG08lVjZcxP0z_ag7A9KJaI_xUorPSTzNGBWtySgIqlkArg7pylormqg9L92YQFIKuvKjbKArHowOkE_82H_jaqEzSU6CQa7y3_SQdWS6l0aqD4-t_IphwNp6eP-l_c8Ec7MJ2T8trzKn8eZAYZ054T_fR4jctF8I31eFdD23_b87mwCOh2yNbPOTqhorLbdMwFMfxr3xcxA4y2s1ANWhuh04m_P2Wgg8-e5x3n8X2ewI0JlUHdkGdZEDhEXK9hFqb6Q9ydNntz01bVfZmRwhLB2T6AFwVoklypV0wlq49C_3tqXR-ya8Ip8j0n3gdEdg9pkUaW-kFPwI5shVlkWopfY2X--6mewFV513E5uGOL2t-4x_VtxFm00
Content-Type: image/svg+xml
Method: raw
Notes: Image MIME type image/svg+xml is unsupported for inline model serialization; returning text metadata only; Falling back to textual rendering from initial response

---

<svg xmlns="http://www.w3.org/2000/svg" xmlns:xlink="http://www.w3.org/1999/xlink" version="1.1" data-diagram-type="ACTIVITY" style="width:912px;height:2688px;background:#FFFFFF;" width="912px" height="2688px" viewBox="0 0 912 2688" zoomAndPan="magnify" preserveAspectRatio="none" contentStyleType="text/css"><?plantuml 1.2026.7beta11?><defs/><g font-family="sans-serif" lengthAdjust="spacing"><g class="title" data-source-line="17"><text x="250.975" y="40.52" fill="#000" font-size="22" textLength="408.431" font-weight="700" font-family="'Noto Sans CJK KR'">AI 기반 코드 품질·성능 리스크 진단 에이전트</text></g><ellipse cx="399.351" cy="72.856" rx="10" ry="10" fill="#2563EB" style="stroke:#000;stroke-width:1;"/><rect x="285.438" y="92.856" width="227.825" height="164.4" fill="#E0F2FE" style="stroke:#000;stroke-width:1;" rx="6" ry="6"/><path d="M383.708,92.856 L383.708,106.128 L373.708,116.128 L285.438,116.128" style="stroke:#000;stroke-width:1;" fill="none"/><text x="288.438" y="110.096" fill="#000" font-size="14" textLength="88.27" font-family="'Noto Sans CJK KR'">입력·안전 정책</text><rect x="318.256" y="133.128" width="162.189" height="37.376" fill="#F8FAFC" style="stroke:#334155;stroke-width:1;" rx="6" ry="6"/><text x="328.256" y="157.048" fill="#0F172A" font-size="12" textLength="142.189" font-family="'Noto Sans CJK KR'">진단 범위, PR diff, 증상 입력</text><rect x="295.438" y="190.504" width="207.825" height="54.752" fill="#F8FAFC" style="stroke:#334155;stroke-width:1;" rx="6" ry="6"/><text x="305.438" y="214.424" fill="#0F172A" font-size="12" textLength="114.229" font-family="'Noto Sans CJK KR'">ExecutionPolicy 생성</text><text x="305.438" y="231.8" fill="#0F172A" font-size="12" textLength="187.825" font-family="'Noto Sans CJK KR'">명령·권한·timeout·redaction 고정</text><rect x="264.99" y="267.256" width="515.395" height="240.872" fill="#DCFCE7" style="stroke:#000;stroke-width:1;" rx="6" ry="6"/><path d="M384.301,267.256 L384.301,280.528 L374.301,290.528 L264.99,290.528" style="stroke:#000;stroke-width:1;" fill="none"/><text x="267.99" y="284.496" fill="#000" font-size="14" textLength="109.312" font-family="'Noto Sans CJK KR'">결정론적 구조 분석</text><rect x="302.632" y="307.528" width="193.437" height="37.376" fill="#F8FAFC" style="stroke:#334155;stroke-width:1;" rx="6" ry="6"/><text x="312.632" y="331.448" fill="#0F172A" font-size="12" textLength="173.437" font-family="'Noto Sans CJK KR'">Python 3.14 AST·심볼·CFG 추출</text><rect x="314.668" y="364.904" width="169.365" height="54.752" fill="#F8FAFC" style="stroke:#334155;stroke-width:1;" rx="6" ry="6"/><text x="324.668" y="388.825" fill="#0F172A" font-size="12" textLength="149.365" font-family="'Noto Sans CJK KR'">Versioned Code Graph 구성</text><text x="324.668" y="406.201" fill="#0F172A" font-size="12" textLength="144.325" font-family="'Noto Sans CJK KR'">호출·의존·예외·테스트 관계</text><path d="M543.712,429.657 L543.712,458.893 L523.712,462.893 L543.712,466.893 L543.712,496.129 A0,0 0 0 0 543.712,496.129 L770.385,496.129 A0,0 0 0 0 770.385,496.129 L770.385,439.657 L760.385,429.657 L543.712,429.657 A0,0 0 0 0 543.712,429.657" style="stroke:#000;stroke-width:1;" fill="#FFF"/><path d="M760.385,429.657 L760.385,439.657 L770.385,439.657 L760.385,429.657" style="stroke:#000;stroke-width:1;" fill="#FFF"/><text x="549.712" y="449.737" fill="#000" font-size="13" textLength="88.946" font-weight="700" font-family="'Noto Sans CJK KR'">AI 전문가 역량 1</text><text x="549.712" y="468.561" fill="#000" font-size="13" textLength="191.802" font-family="'Noto Sans CJK KR'">LLM에 구조 사실을 추측시키지 않고</text><text x="549.712" y="487.385" fill="#000" font-size="13" textLength="205.673" font-family="'Noto Sans CJK KR'">심볼릭 분석과 생성형 AI의 역할을 분리</text><rect x="274.99" y="444.205" width="248.722" height="37.376" fill="#F8FAFC" style="stroke:#334155;stroke-width:1;" rx="6" ry="6"/><text x="284.99" y="468.125" fill="#0F172A" font-size="12" textLength="228.722" font-family="'Noto Sans CJK KR'">Lexical anchor + bounded 1-hop 문맥 구성</text><rect x="171.018" y="518.129" width="672.406" height="475.893" fill="#F3E8FF" style="stroke:#000;stroke-width:1;" rx="6" ry="6"/><path d="M322.095,518.129 L322.095,531.401 L312.095,541.401 L171.018,541.401" style="stroke:#000;stroke-width:1;" fill="none"/><text x="174.018" y="535.369" fill="#000" font-size="14" textLength="141.077" font-family="'Noto Sans CJK KR'">AI 가설 중심 적응형 진단</text><rect x="273.298" y="558.401" width="252.106" height="54.752" fill="#F8FAFC" style="stroke:#334155;stroke-width:1;" rx="6" ry="6"/><text x="283.298" y="582.321" fill="#0F172A" font-size="12" textLength="116.197" font-family="'Noto Sans CJK KR'">Diagnosis Planner v2</text><text x="283.298" y="599.697" fill="#0F172A" font-size="12" textLength="232.106" font-family="'Noto Sans CJK KR'">관점별 run·skip·defer·shadow와 근거 제안</text><polygon points="360.659,633.153,438.043,633.153,450.043,645.153,438.043,657.153,360.659,657.153,348.659,645.153,360.659,633.153" fill="#FEF3C7" style="stroke:#D97706;stroke-width:1;stroke-linejoin:miter;stroke-miterlimit:10;"/><text x="360.659" y="649.949" fill="#0F172A" font-size="11" textLength="77.384" font-family="'Noto Sans CJK KR'">Plan Gate 통과?</text><text x="338.539" y="641.985" fill="#000" font-size="11" font-family="'Noto Sans CJK KR'">예</text><text x="450.043" y="641.985" fill="#000" font-size="11" textLength="30.36" font-family="'Noto Sans CJK KR'">아니오</text><rect x="191.018" y="667.153" width="224.001" height="54.752" fill="#F8FAFC" style="stroke:#334155;stroke-width:1;" rx="6" ry="6"/><text x="201.018" y="691.073" fill="#0F172A" font-size="12" textLength="204.001" font-family="'Noto Sans CJK KR'">Fixed-five | Shadow | Routed mode로</text><text x="201.018" y="708.449" fill="#0F172A" font-size="12" textLength="98.017" font-family="'Noto Sans CJK KR'">등록 관점 dispatch</text><rect x="435.019" y="667.153" width="121.329" height="37.376" fill="#F8FAFC" style="stroke:#334155;stroke-width:1;" rx="6" ry="6"/><text x="445.019" y="691.073" fill="#0F172A" font-size="12" textLength="101.329" font-family="'Noto Sans CJK KR'">Fixed-five fallback</text><polygon points="399.351,727.905,411.351,739.905,399.351,751.905,387.351,739.905,399.351,727.905" fill="#FEF3C7" style="stroke:#D97706;stroke-width:1;stroke-linejoin:miter;stroke-miterlimit:10;"/><rect x="291.742" y="771.905" width="215.217" height="54.752" fill="#F8FAFC" style="stroke:#334155;stroke-width:1;" rx="6" ry="6"/><text x="301.742" y="795.825" fill="#0F172A" font-size="12" textLength="195.217" font-family="'Noto Sans CJK KR'">구조·정확성·성능·동시성·테스트 분석</text><text x="301.742" y="813.201" fill="#0F172A" font-size="12" textLength="89.989" font-family="'Noto Sans CJK KR'">+ 등록 focus lens</text><rect x="319.918" y="846.657" width="158.865" height="54.752" fill="#F8FAFC" style="stroke:#334155;stroke-width:1;" rx="6" ry="6"/><text x="329.918" y="870.577" fill="#0F172A" font-size="12" textLength="135.409" font-family="'Noto Sans CJK KR'">Contributor Finding 병합</text><text x="329.918" y="887.954" fill="#0F172A" font-size="12" textLength="138.865" font-family="'Noto Sans CJK KR'">원인·위치·Severity 표준화</text><path d="M526.137,915.55 L526.137,944.786 L506.137,948.786 L526.137,952.786 L526.137,982.022 A0,0 0 0 0 526.137,982.022 L833.424,982.022 A0,0 0 0 0 833.424,982.022 L833.424,925.55 L823.424,915.55 L526.137,915.55 A0,0 0 0 0 526.137,915.55" style="stroke:#000;stroke-width:1;" fill="#FFF"/><path d="M823.424,915.55 L823.424,925.55 L833.424,925.55 L823.424,915.55" style="stroke:#000;stroke-width:1;" fill="#FFF"/><text x="532.137" y="935.63" fill="#000" font-size="13" textLength="88.946" font-weight="700" font-family="'Noto Sans CJK KR'">AI 전문가 역량 2</text><text x="532.137" y="954.454" fill="#000" font-size="13" textLength="286.286" font-family="'Noto Sans CJK KR'">고정 5관점을 taxonomy와 안전 기준으로 유지하면서</text><text x="532.137" y="973.278" fill="#000" font-size="13" textLength="232.752" font-family="'Noto Sans CJK KR'">증거에 따라 필요한 관점과 검증 행동을 계획</text><rect x="292.564" y="921.41" width="213.573" height="54.752" fill="#F8FAFC" style="stroke:#334155;stroke-width:1;" rx="6" ry="6"/><text x="302.564" y="945.33" fill="#0F172A" font-size="12" textLength="136.285" font-family="'Noto Sans CJK KR'">HypothesisContract 생성</text><text x="302.564" y="962.706" fill="#0F172A" font-size="12" textLength="193.573" font-family="'Noto Sans CJK KR'">조건·지지/반박 관찰·독립 oracle 고정</text><rect x="296.214" y="1062.282" width="206.273" height="204.4" fill="#FFF7ED" style="stroke:#000;stroke-width:1;" rx="6" ry="6"/><path d="M386.63,1062.282 L386.63,1075.554 L376.63,1085.554 L296.214,1085.554" style="stroke:#000;stroke-width:1;" fill="none"/><text x="299.214" y="1079.522" fill="#000" font-size="14" textLength="80.416" font-family="'Noto Sans CJK KR'">제한적 재검색</text><rect x="306.214" y="1102.554" width="186.273" height="37.376" fill="#F8FAFC" style="stroke:#334155;stroke-width:1;" rx="6" ry="6"/><text x="316.214" y="1126.474" fill="#0F172A" font-size="12" textLength="166.273" font-family="'Noto Sans CJK KR'">Typed ExpansionRequest 검증</text><rect x="312.364" y="1159.93" width="173.973" height="37.376" fill="#F8FAFC" style="stroke:#334155;stroke-width:1;" rx="6" ry="6"/><text x="322.364" y="1183.85" fill="#0F172A" font-size="12" textLength="153.973" font-family="'Noto Sans CJK KR'">선택된 관계만 최대 2-hop 확장</text><rect x="310.87" y="1217.306" width="176.961" height="37.376" fill="#F8FAFC" style="stroke:#334155;stroke-width:1;" rx="6" ry="6"/><text x="320.87" y="1241.226" fill="#0F172A" font-size="12" textLength="156.961" font-family="'Noto Sans CJK KR'">해당 관점만 재분석 후 결과 갱신</text><polygon points="348.74,1014.022,449.961,1014.022,461.961,1026.022,449.961,1038.022,348.74,1038.022,336.74,1026.022,348.74,1014.022" fill="#FEF3C7" style="stroke:#D97706;stroke-width:1;stroke-linejoin:miter;stroke-miterlimit:10;"/><text x="403.351" y="1050.782" fill="#000" font-size="11" font-family="'Noto Sans CJK KR'">예</text><text x="348.74" y="1030.818" fill="#0F172A" font-size="11" textLength="101.221" font-family="'Noto Sans CJK KR'">구조 증거가 부족한가?</text><text x="461.961" y="1022.854" fill="#000" font-size="11" textLength="30.36" font-family="'Noto Sans CJK KR'">아니오</text><polygon points="399.351,1286.682,411.351,1298.682,399.351,1310.682,387.351,1298.682,399.351,1286.682" fill="#FEF3C7" style="stroke:#D97706;stroke-width:1;stroke-linejoin:miter;stroke-miterlimit:10;"/><rect x="313.534" y="1380.646" width="171.633" height="54.752" fill="#F8FAFC" style="stroke:#334155;stroke-width:1;" rx="6" ry="6"/><text x="323.534" y="1404.566" fill="#0F172A" font-size="12" textLength="133.753" font-family="'Noto Sans CJK KR'">근거 인용형 critic 최대 1회</text><text x="323.534" y="1421.942" fill="#0F172A" font-size="12" textLength="151.633" font-family="'Noto Sans CJK KR'">반박·우려·probe 요청만 허용</text><polygon points="313.337,1330.682,485.365,1330.682,497.365,1342.682,485.365,1354.682,313.337,1354.682,301.337,1342.682,313.337,1330.682" fill="#FEF3C7" style="stroke:#D97706;stroke-width:1;stroke-linejoin:miter;stroke-miterlimit:10;"/><text x="403.351" y="1367.442" fill="#000" font-size="11" font-family="'Noto Sans CJK KR'">예</text><text x="313.337" y="1347.478" fill="#0F172A" font-size="11" textLength="172.028" font-family="'Noto Sans CJK KR'">High/Critical 충돌·미해결 반례인가?</text><text x="497.365" y="1339.514" fill="#000" font-size="11" textLength="30.36" font-family="'Noto Sans CJK KR'">아니오</text><polygon points="399.351,1455.398,411.351,1467.398,399.351,1479.398,387.351,1467.398,399.351,1455.398" fill="#FEF3C7" style="stroke:#D97706;stroke-width:1;stroke-linejoin:miter;stroke-miterlimit:10;"/><path d="M56.403,1489.398 L56.403,1555.87 L336.74,1555.87 L336.74,1499.398 L326.74,1489.398 L56.403,1489.398" style="stroke:#000;stroke-width:1;" fill="#FFF"/><path d="M326.74,1489.398 L326.74,1499.398 L336.74,1499.398 L326.74,1489.398" style="stroke:#000;stroke-width:1;" fill="#FFF"/><text x="62.403" y="1509.478" fill="#000" font-size="13" textLength="88.946" font-weight="700" font-family="'Noto Sans CJK KR'">AI 전문가 역량 3</text><text x="62.403" y="1528.302" fill="#000" font-size="13" textLength="259.337" font-family="'Noto Sans CJK KR'">AI가 가설을 만들되 실행 전 반증 기준을 고정하고</text><text x="62.403" y="1547.126" fill="#000" font-size="13" textLength="204.607" font-family="'Noto Sans CJK KR'">권한·oracle·비용 조건을 코드가 검증</text><polygon points="309.107,1605.834,489.594,1605.834,501.594,1617.834,489.594,1629.834,309.107,1629.834,297.107,1617.834,309.107,1605.834" fill="#FEF3C7" style="stroke:#D97706;stroke-width:1;stroke-linejoin:miter;stroke-miterlimit:10;"/><text x="309.107" y="1622.63" fill="#0F172A" font-size="11" textLength="180.487" font-family="'Noto Sans CJK KR'">독립 oracle이 있는 Focused test인가?</text><text x="286.988" y="1614.666" fill="#000" font-size="11" font-family="'Noto Sans CJK KR'">예</text><text x="501.594" y="1614.666" fill="#000" font-size="11" textLength="30.36" font-family="'Noto Sans CJK KR'">아니오</text><rect x="11" y="1639.834" width="345.438" height="170.024" fill="#FFEDD5" style="stroke:#000;stroke-width:1;" rx="6" ry="6"/><path d="M104.552,1639.834 L104.552,1653.106 L94.552,1663.106 L11,1663.106" style="stroke:#000;stroke-width:1;" fill="none"/><text x="14" y="1657.074" fill="#000" font-size="14" textLength="83.552" font-family="'Noto Sans CJK KR'">가설 실행 검증</text><rect x="21" y="1680.106" width="325.438" height="37.376" fill="#F8FAFC" style="stroke:#334155;stroke-width:1;" rx="6" ry="6"/><text x="31" y="1704.026" fill="#0F172A" font-size="12" textLength="305.438" font-family="'Noto Sans CJK KR'">HypothesisContract와 command manifest exact match</text><rect x="101.185" y="1752.482" width="165.069" height="37.376" fill="#F8FAFC" style="stroke:#334155;stroke-width:1;" rx="6" ry="6"/><text x="111.185" y="1776.402" fill="#0F172A" font-size="12" textLength="145.069" font-family="'Noto Sans CJK KR'">Sandbox focused test 실행</text><polygon points="528.556,1639.834,701.409,1639.834,713.409,1651.834,701.409,1663.834,528.556,1663.834,516.556,1651.834,528.556,1639.834" fill="#FEF3C7" style="stroke:#D97706;stroke-width:1;stroke-linejoin:miter;stroke-miterlimit:10;"/><text x="528.556" y="1656.63" fill="#0F172A" font-size="11" textLength="172.853" font-family="'Noto Sans CJK KR'">Profiler 후보이며 opt-in 승인됐는가?</text><text x="506.436" y="1648.666" fill="#000" font-size="11" font-family="'Noto Sans CJK KR'">예</text><text x="713.409" y="1648.666" fill="#000" font-size="11" textLength="30.36" font-family="'Noto Sans CJK KR'">아니오</text><rect x="386.438" y="1673.834" width="206.117" height="162.024" fill="#FEE2E2" style="stroke:#000;stroke-width:1;" rx="6" ry="6"/><path d="M486.556,1673.834 L486.556,1687.106 L476.556,1697.106 L386.438,1697.106" style="stroke:#000;stroke-width:1;" fill="none"/><text x="389.438" y="1691.074" fill="#000" font-size="14" textLength="90.118" font-family="'Noto Sans CJK KR'">선택적 Profiler</text><rect x="408.264" y="1714.106" width="162.465" height="37.376" fill="#F8FAFC" style="stroke:#334155;stroke-width:1;" rx="6" ry="6"/><text x="418.264" y="1738.026" fill="#0F172A" font-size="12" textLength="142.465" font-family="'Noto Sans CJK KR'">결정론적 router로 도구 선택</text><rect x="396.438" y="1786.482" width="186.117" height="37.376" fill="#F8FAFC" style="stroke:#334155;stroke-width:1;" rx="6" ry="6"/><text x="406.438" y="1810.402" fill="#0F172A" font-size="12" textLength="166.117" font-family="'Noto Sans CJK KR'">cProfile | py-spy | Scalene 실행</text><rect x="612.555" y="1673.834" width="255.826" height="37.376" fill="#F8FAFC" style="stroke:#334155;stroke-width:1;" rx="6" ry="6"/><text x="622.555" y="1697.754" fill="#0F172A" font-size="12" textLength="235.826" font-family="'Noto Sans CJK KR'">abstained / not-needed / blocked 사유 기록</text><polygon points="614.982,1841.858,626.982,1853.858,614.982,1865.858,602.982,1853.858,614.982,1841.858" fill="#FEF3C7" style="stroke:#D97706;stroke-width:1;stroke-linejoin:miter;stroke-miterlimit:10;"/><polygon points="399.351,1871.858,411.351,1883.858,399.351,1895.858,387.351,1883.858,399.351,1871.858" fill="#FEF3C7" style="stroke:#D97706;stroke-width:1;stroke-linejoin:miter;stroke-miterlimit:10;"/><polygon points="348.74,1555.87,449.961,1555.87,461.961,1567.87,449.961,1579.87,348.74,1579.87,336.74,1567.87,348.74,1555.87" fill="#FEF3C7" style="stroke:#D97706;stroke-width:1;stroke-linejoin:miter;stroke-miterlimit:10;"/><text x="403.351" y="1592.63" fill="#000" font-size="11" font-family="'Noto Sans CJK KR'">예</text><text x="348.74" y="1572.666" fill="#0F172A" font-size="11" textLength="101.221" font-family="'Noto Sans CJK KR'">실행 증거가 필요한가?</text><text x="461.961" y="1564.702" fill="#000" font-size="11" textLength="30.36" font-family="'Noto Sans CJK KR'">아니오</text><polygon points="399.351,1915.858,411.351,1927.858,399.351,1939.858,387.351,1927.858,399.351,1915.858" fill="#FEF3C7" style="stroke:#D97706;stroke-width:1;stroke-linejoin:miter;stroke-miterlimit:10;"/><rect x="260.484" y="1949.858" width="277.734" height="164.4" fill="#ECFDF5" style="stroke:#000;stroke-width:1;" rx="6" ry="6"/><path d="M400.529,1949.858 L400.529,1963.13 L390.529,1973.13 L260.484,1973.13" style="stroke:#000;stroke-width:1;" fill="none"/><text x="263.484" y="1967.098" fill="#000" font-size="14" textLength="130.045" font-family="'Noto Sans CJK KR'">증거 정규화·환각 통제</text><rect x="279.316" y="1990.13" width="240.07" height="54.752" fill="#F8FAFC" style="stroke:#334155;stroke-width:1;" rx="6" ry="6"/><text x="289.316" y="2014.05" fill="#0F172A" font-size="12" textLength="123.373" font-family="'Noto Sans CJK KR'">RuntimeEvidence 생성</text><text x="289.316" y="2031.426" fill="#0F172A" font-size="12" textLength="220.07" font-family="'Noto Sans CJK KR'">source·policy·workload·raw hash 보존</text><rect x="270.484" y="2064.882" width="257.734" height="37.376" fill="#F8FAFC" style="stroke:#334155;stroke-width:1;" rx="6" ry="6"/><text x="280.484" y="2088.803" fill="#0F172A" font-size="12" textLength="237.734" font-family="'Noto Sans CJK KR'">Evidence Gate에서 위치·계약·근거·반례 검사</text><polygon points="247.74,2134.259,369.201,2134.259,381.201,2146.259,369.201,2158.259,247.74,2158.259,235.74,2146.259,247.74,2134.259" fill="#FEF3C7" style="stroke:#D97706;stroke-width:1;stroke-linejoin:miter;stroke-miterlimit:10;"/><text x="312.47" y="2171.018" fill="#000" font-size="11" textLength="20.24" font-family="'Noto Sans CJK KR'">지지</text><text x="247.74" y="2151.054" fill="#0F172A" font-size="11" textLength="121.461" font-family="'Noto Sans CJK KR'">근거가 가설을 지지하는가?</text><rect x="243.81" y="2194.186" width="129.321" height="37.376" fill="#F8FAFC" style="stroke:#334155;stroke-width:1;" rx="6" ry="6"/><text x="253.81" y="2218.107" fill="#0F172A" font-size="12" textLength="109.321" font-family="'Noto Sans CJK KR'">runtime_confirmed</text><polygon points="422.193,2134.259,446.193,2134.259,458.193,2146.259,446.193,2158.259,422.193,2158.259,410.193,2146.259,422.193,2134.259" fill="#FEF3C7" style="stroke:#D97706;stroke-width:1;stroke-linejoin:miter;stroke-miterlimit:10;"/><text x="438.193" y="2171.018" fill="#000" font-size="11" textLength="20.24" font-family="'Noto Sans CJK KR'">반박</text><text x="424.073" y="2151.054" fill="#0F172A" font-size="11" textLength="20.24" font-family="'Noto Sans CJK KR'">반박</text><text x="458.193" y="2143.091" fill="#000" font-size="11" textLength="30.36" font-family="'Noto Sans CJK KR'">불충분</text><rect x="401.201" y="2194.186" width="65.984" height="37.376" fill="#F8FAFC" style="stroke:#334155;stroke-width:1;" rx="6" ry="6"/><text x="411.201" y="2218.107" fill="#0F172A" font-size="12" textLength="45.984" font-family="'Noto Sans CJK KR'">rejected</text><rect x="487.185" y="2189.222" width="75.776" height="37.376" fill="#F8FAFC" style="stroke:#334155;stroke-width:1;" rx="6" ry="6"/><text x="497.185" y="2213.143" fill="#0F172A" font-size="12" textLength="55.776" font-family="'Noto Sans CJK KR'">abstained</text><rect x="234.762" y="2261.563" width="603.45" height="223.496" fill="#EDE9FE" style="stroke:#000;stroke-width:1;" rx="6" ry="6"/><path d="M304.135,2261.563 L304.135,2274.834 L294.135,2284.834 L234.762,2284.834" style="stroke:#000;stroke-width:1;" fill="none"/><text x="237.762" y="2278.802" fill="#000" font-size="14" textLength="59.374" font-family="'Noto Sans CJK KR'">결과·평가</text><rect x="286.9" y="2301.834" width="224.902" height="37.376" fill="#F8FAFC" style="stroke:#334155;stroke-width:1;" rx="6" ry="6"/><text x="296.9" y="2325.755" fill="#0F172A" font-size="12" textLength="204.902" font-family="'Noto Sans CJK KR'">위험도·근거·영향·최소 조치 보고서 생성</text><rect x="261.418" y="2359.211" width="275.866" height="37.376" fill="#F8FAFC" style="stroke:#334155;stroke-width:1;" rx="6" ry="6"/><text x="271.418" y="2383.131" fill="#0F172A" font-size="12" textLength="255.866" font-family="'Noto Sans CJK KR'">동일 B_run으로 P4-F5·S1·S2·critic·probe 비교</text><path d="M573.94,2406.587 L573.94,2435.823 L553.94,2439.823 L573.94,2443.823 L573.94,2473.059 A0,0 0 0 0 573.94,2473.059 L828.212,2473.059 A0,0 0 0 0 828.212,2473.059 L828.212,2416.587 L818.212,2406.587 L573.94,2406.587 A0,0 0 0 0 573.94,2406.587" style="stroke:#000;stroke-width:1;" fill="#FFF"/><path d="M818.212,2406.587 L818.212,2416.587 L828.212,2416.587 L818.212,2406.587" style="stroke:#000;stroke-width:1;" fill="#FFF"/><text x="579.94" y="2426.667" fill="#000" font-size="13" textLength="88.946" font-weight="700" font-family="'Noto Sans CJK KR'">AI 전문가 역량 4</text><text x="579.94" y="2445.491" fill="#000" font-size="13" textLength="233.272" font-family="'Noto Sans CJK KR'">5관점 분업을 넘어 Planner routing 자체의</text><text x="579.94" y="2464.315" fill="#000" font-size="13" textLength="221.975" font-family="'Noto Sans CJK KR'">품질·누락·비용·반증 가능성을 정량 평가</text><rect x="244.762" y="2421.135" width="309.178" height="37.376" fill="#F8FAFC" style="stroke:#334155;stroke-width:1;" rx="6" ry="6"/><text x="254.762" y="2445.055" fill="#0F172A" font-size="12" textLength="289.178" font-family="'Noto Sans CJK KR'">Evaluator-owned gold로 관점 누락·Recall·token 검증</text><ellipse cx="399.351" cy="2516.059" rx="11" ry="11" fill="none" style="stroke:#000;stroke-width:1;"/><ellipse cx="399.351" cy="2516.059" rx="6" ry="6" fill="#FFF" style="stroke:#000;stroke-width:1;"/><line x1="399.351" y1="170.504" x2="399.351" y2="190.504" style="stroke:#000;stroke-width:1;"/><polygon points="395.351,180.504,399.351,190.504,403.351,180.504,399.351,184.504" fill="#000" style="stroke:#000;stroke-width:1;stroke-linejoin:miter;stroke-miterlimit:10;"/><line x1="399.351" y1="82.856" x2="399.351" y2="133.128" style="stroke:#000;stroke-width:1;"/><polygon points="395.351,123.128,399.351,133.128,403.351,123.128,399.351,127.128" fill="#000" style="stroke:#000;stroke-width:1;stroke-linejoin:miter;stroke-miterlimit:10;"/><line x1="399.351" y1="344.904" x2="399.351" y2="364.904" style="stroke:#000;stroke-width:1;"/><polygon points="395.351,354.904,399.351,364.904,403.351,354.904,399.351,358.904" fill="#000" style="stroke:#000;stroke-width:1;stroke-linejoin:miter;stroke-miterlimit:10;"/><line x1="399.351" y1="419.657" x2="399.351" y2="444.205" style="stroke:#000;stroke-width:1;"/><polygon points="395.351,434.205,399.351,444.205,403.351,434.205,399.351,438.205" fill="#000" style="stroke:#000;stroke-width:1;stroke-linejoin:miter;stroke-miterlimit:10;"/><line x1="399.351" y1="245.256" x2="399.351" y2="307.528" style="stroke:#000;stroke-width:1;"/><polygon points="395.351,297.528,399.351,307.528,403.351,297.528,399.351,301.528" fill="#000" style="stroke:#000;stroke-width:1;stroke-linejoin:miter;stroke-miterlimit:10;"/><line x1="348.659" y1="645.153" x2="303.018" y2="645.153" style="stroke:#000;stroke-width:1;"/><line x1="303.018" y1="645.153" x2="303.018" y2="667.153" style="stroke:#000;stroke-width:1;"/><polygon points="299.018,657.153,303.018,667.153,307.018,657.153,303.018,661.153" fill="#000" style="stroke:#000;stroke-width:1;stroke-linejoin:miter;stroke-miterlimit:10;"/><line x1="450.043" y1="645.153" x2="495.683" y2="645.153" style="stroke:#000;stroke-width:1;"/><line x1="495.683" y1="645.153" x2="495.683" y2="667.153" style="stroke:#000;stroke-width:1;"/><polygon points="491.683,657.153,495.683,667.153,499.683,657.153,495.683,661.153" fill="#000" style="stroke:#000;stroke-width:1;stroke-linejoin:miter;stroke-miterlimit:10;"/><line x1="303.018" y1="721.905" x2="303.018" y2="739.905" style="stroke:#000;stroke-width:1;"/><line x1="303.018" y1="739.905" x2="387.351" y2="739.905" style="stroke:#000;stroke-width:1;"/><polygon points="377.351,735.905,387.351,739.905,377.351,743.905,381.351,739.905" fill="#000" style="stroke:#000;stroke-width:1;stroke-linejoin:miter;stroke-miterlimit:10;"/><line x1="495.683" y1="704.529" x2="495.683" y2="739.905" style="stroke:#000;stroke-width:1;"/><line x1="495.683" y1="739.905" x2="411.351" y2="739.905" style="stroke:#000;stroke-width:1;"/><polygon points="421.351,735.905,411.351,739.905,421.351,743.905,417.351,739.905" fill="#000" style="stroke:#000;stroke-width:1;stroke-linejoin:miter;stroke-miterlimit:10;"/><line x1="399.351" y1="613.153" x2="399.351" y2="633.153" style="stroke:#000;stroke-width:1;"/><polygon points="395.351,623.153,399.351,633.153,403.351,623.153,399.351,627.153" fill="#000" style="stroke:#000;stroke-width:1;stroke-linejoin:miter;stroke-miterlimit:10;"/><line x1="399.351" y1="751.905" x2="399.351" y2="771.905" style="stroke:#000;stroke-width:1;"/><polygon points="395.351,761.905,399.351,771.905,403.351,761.905,399.351,765.905" fill="#000" style="stroke:#000;stroke-width:1;stroke-linejoin:miter;stroke-miterlimit:10;"/><line x1="399.351" y1="826.657" x2="399.351" y2="846.657" style="stroke:#000;stroke-width:1;"/><polygon points="395.351,836.657,399.351,846.657,403.351,836.657,399.351,840.657" fill="#000" style="stroke:#000;stroke-width:1;stroke-linejoin:miter;stroke-miterlimit:10;"/><line x1="399.351" y1="901.41" x2="399.351" y2="921.41" style="stroke:#000;stroke-width:1;"/><polygon points="395.351,911.41,399.351,921.41,403.351,911.41,399.351,915.41" fill="#000" style="stroke:#000;stroke-width:1;stroke-linejoin:miter;stroke-miterlimit:10;"/><line x1="399.351" y1="481.581" x2="399.351" y2="558.401" style="stroke:#000;stroke-width:1;"/><polygon points="395.351,548.401,399.351,558.401,403.351,548.401,399.351,552.401" fill="#000" style="stroke:#000;stroke-width:1;stroke-linejoin:miter;stroke-miterlimit:10;"/><line x1="399.351" y1="1139.93" x2="399.351" y2="1159.93" style="stroke:#000;stroke-width:1;"/><polygon points="395.351,1149.93,399.351,1159.93,403.351,1149.93,399.351,1153.93" fill="#000" style="stroke:#000;stroke-width:1;stroke-linejoin:miter;stroke-miterlimit:10;"/><line x1="399.351" y1="1197.306" x2="399.351" y2="1217.306" style="stroke:#000;stroke-width:1;"/><polygon points="395.351,1207.306,399.351,1217.306,403.351,1207.306,399.351,1211.306" fill="#000" style="stroke:#000;stroke-width:1;stroke-linejoin:miter;stroke-miterlimit:10;"/><line x1="399.351" y1="1038.022" x2="399.351" y2="1102.554" style="stroke:#000;stroke-width:1;"/><polygon points="395.351,1092.554,399.351,1102.554,403.351,1092.554,399.351,1096.554" fill="#000" style="stroke:#000;stroke-width:1;stroke-linejoin:miter;stroke-miterlimit:10;"/><line x1="461.961" y1="1026.022" x2="512.487" y2="1026.022" style="stroke:#000;stroke-width:1;"/><polygon points="508.487,1158.482,512.487,1168.482,516.487,1158.482,512.487,1162.482" fill="#000" style="stroke:#000;stroke-width:1;stroke-linejoin:miter;stroke-miterlimit:10;"/><line x1="512.487" y1="1026.022" x2="512.487" y2="1298.682" style="stroke:#000;stroke-width:1;"/><line x1="512.487" y1="1298.682" x2="411.351" y2="1298.682" style="stroke:#000;stroke-width:1;"/><polygon points="421.351,1294.682,411.351,1298.682,421.351,1302.682,417.351,1298.682" fill="#000" style="stroke:#000;stroke-width:1;stroke-linejoin:miter;stroke-miterlimit:10;"/><line x1="399.351" y1="1254.682" x2="399.351" y2="1286.682" style="stroke:#000;stroke-width:1;"/><polygon points="395.351,1276.682,399.351,1286.682,403.351,1276.682,399.351,1280.682" fill="#000" style="stroke:#000;stroke-width:1;stroke-linejoin:miter;stroke-miterlimit:10;"/><line x1="399.351" y1="976.162" x2="399.351" y2="1014.022" style="stroke:#000;stroke-width:1;"/><polygon points="395.351,1004.022,399.351,1014.022,403.351,1004.022,399.351,1008.022" fill="#000" style="stroke:#000;stroke-width:1;stroke-linejoin:miter;stroke-miterlimit:10;"/><line x1="399.351" y1="1354.682" x2="399.351" y2="1380.646" style="stroke:#000;stroke-width:1;"/><polygon points="395.351,1370.646,399.351,1380.646,403.351,1370.646,399.351,1374.646" fill="#000" style="stroke:#000;stroke-width:1;stroke-linejoin:miter;stroke-miterlimit:10;"/><line x1="497.365" y1="1342.682" x2="509.365" y2="1342.682" style="stroke:#000;stroke-width:1;"/><polygon points="505.365,1398.022,509.365,1408.022,513.365,1398.022,509.365,1402.022" fill="#000" style="stroke:#000;stroke-width:1;stroke-linejoin:miter;stroke-miterlimit:10;"/><line x1="509.365" y1="1342.682" x2="509.365" y2="1467.398" style="stroke:#000;stroke-width:1;"/><line x1="509.365" y1="1467.398" x2="411.351" y2="1467.398" style="stroke:#000;stroke-width:1;"/><polygon points="421.351,1463.398,411.351,1467.398,421.351,1471.398,417.351,1467.398" fill="#000" style="stroke:#000;stroke-width:1;stroke-linejoin:miter;stroke-miterlimit:10;"/><line x1="399.351" y1="1435.398" x2="399.351" y2="1455.398" style="stroke:#000;stroke-width:1;"/><polygon points="395.351,1445.398,399.351,1455.398,403.351,1445.398,399.351,1449.398" fill="#000" style="stroke:#000;stroke-width:1;stroke-linejoin:miter;stroke-miterlimit:10;"/><line x1="399.351" y1="1310.682" x2="399.351" y2="1330.682" style="stroke:#000;stroke-width:1;"/><polygon points="395.351,1320.682,399.351,1330.682,403.351,1320.682,399.351,1324.682" fill="#000" style="stroke:#000;stroke-width:1;stroke-linejoin:miter;stroke-miterlimit:10;"/><line x1="183.719" y1="1717.482" x2="183.719" y2="1752.482" style="stroke:#000;stroke-width:1;"/><polygon points="179.719,1742.482,183.719,1752.482,187.719,1742.482,183.719,1746.482" fill="#000" style="stroke:#000;stroke-width:1;stroke-linejoin:miter;stroke-miterlimit:10;"/><line x1="489.497" y1="1751.482" x2="489.497" y2="1786.482" style="stroke:#000;stroke-width:1;"/><polygon points="485.497,1776.482,489.497,1786.482,493.497,1776.482,489.497,1780.482" fill="#000" style="stroke:#000;stroke-width:1;stroke-linejoin:miter;stroke-miterlimit:10;"/><line x1="516.556" y1="1651.834" x2="489.497" y2="1651.834" style="stroke:#000;stroke-width:1;"/><line x1="489.497" y1="1651.834" x2="489.497" y2="1714.106" style="stroke:#000;stroke-width:1;"/><polygon points="485.497,1704.106,489.497,1714.106,493.497,1704.106,489.497,1708.106" fill="#000" style="stroke:#000;stroke-width:1;stroke-linejoin:miter;stroke-miterlimit:10;"/><line x1="713.409" y1="1651.834" x2="740.468" y2="1651.834" style="stroke:#000;stroke-width:1;"/><line x1="740.468" y1="1651.834" x2="740.468" y2="1673.834" style="stroke:#000;stroke-width:1;"/><polygon points="736.468,1663.834,740.468,1673.834,744.468,1663.834,740.468,1667.834" fill="#000" style="stroke:#000;stroke-width:1;stroke-linejoin:miter;stroke-miterlimit:10;"/><line x1="489.497" y1="1823.858" x2="489.497" y2="1853.858" style="stroke:#000;stroke-width:1;"/><line x1="489.497" y1="1853.858" x2="602.982" y2="1853.858" style="stroke:#000;stroke-width:1;"/><polygon points="592.982,1849.858,602.982,1853.858,592.982,1857.858,596.982,1853.858" fill="#000" style="stroke:#000;stroke-width:1;stroke-linejoin:miter;stroke-miterlimit:10;"/><line x1="740.468" y1="1711.21" x2="740.468" y2="1853.858" style="stroke:#000;stroke-width:1;"/><line x1="740.468" y1="1853.858" x2="626.982" y2="1853.858" style="stroke:#000;stroke-width:1;"/><polygon points="636.982,1849.858,626.982,1853.858,636.982,1857.858,632.982,1853.858" fill="#000" style="stroke:#000;stroke-width:1;stroke-linejoin:miter;stroke-miterlimit:10;"/><line x1="297.107" y1="1617.834" x2="183.719" y2="1617.834" style="stroke:#000;stroke-width:1;"/><line x1="183.719" y1="1617.834" x2="183.719" y2="1680.106" style="stroke:#000;stroke-width:1;"/><polygon points="179.719,1670.106,183.719,1680.106,187.719,1670.106,183.719,1674.106" fill="#000" style="stroke:#000;stroke-width:1;stroke-linejoin:miter;stroke-miterlimit:10;"/><line x1="501.594" y1="1617.834" x2="614.982" y2="1617.834" style="stroke:#000;stroke-width:1;"/><line x1="614.982" y1="1617.834" x2="614.982" y2="1639.834" style="stroke:#000;stroke-width:1;"/><polygon points="610.982,1629.834,614.982,1639.834,618.982,1629.834,614.982,1633.834" fill="#000" style="stroke:#000;stroke-width:1;stroke-linejoin:miter;stroke-miterlimit:10;"/><line x1="183.719" y1="1789.858" x2="183.719" y2="1883.858" style="stroke:#000;stroke-width:1;"/><line x1="183.719" y1="1883.858" x2="387.351" y2="1883.858" style="stroke:#000;stroke-width:1;"/><polygon points="377.351,1879.858,387.351,1883.858,377.351,1887.858,381.351,1883.858" fill="#000" style="stroke:#000;stroke-width:1;stroke-linejoin:miter;stroke-miterlimit:10;"/><line x1="614.982" y1="1865.858" x2="614.982" y2="1883.858" style="stroke:#000;stroke-width:1;"/><line x1="614.982" y1="1883.858" x2="411.351" y2="1883.858" style="stroke:#000;stroke-width:1;"/><polygon points="421.351,1879.858,411.351,1883.858,421.351,1887.858,417.351,1883.858" fill="#000" style="stroke:#000;stroke-width:1;stroke-linejoin:miter;stroke-miterlimit:10;"/><line x1="399.351" y1="1579.87" x2="399.351" y2="1605.834" style="stroke:#000;stroke-width:1;"/><polygon points="395.351,1595.834,399.351,1605.834,403.351,1595.834,399.351,1599.834" fill="#000" style="stroke:#000;stroke-width:1;stroke-linejoin:miter;stroke-miterlimit:10;"/><line x1="461.961" y1="1567.87" x2="882.381" y2="1567.87" style="stroke:#000;stroke-width:1;"/><polygon points="878.381,1744.846,882.381,1754.846,886.381,1744.846,882.381,1748.846" fill="#000" style="stroke:#000;stroke-width:1;stroke-linejoin:miter;stroke-miterlimit:10;"/><line x1="882.381" y1="1567.87" x2="882.381" y2="1927.858" style="stroke:#000;stroke-width:1;"/><line x1="882.381" y1="1927.858" x2="411.351" y2="1927.858" style="stroke:#000;stroke-width:1;"/><polygon points="421.351,1923.858,411.351,1927.858,421.351,1931.858,417.351,1927.858" fill="#000" style="stroke:#000;stroke-width:1;stroke-linejoin:miter;stroke-miterlimit:10;"/><line x1="399.351" y1="1895.858" x2="399.351" y2="1915.858" style="stroke:#000;stroke-width:1;"/><polygon points="395.351,1905.858,399.351,1915.858,403.351,1905.858,399.351,1909.858" fill="#000" style="stroke:#000;stroke-width:1;stroke-linejoin:miter;stroke-miterlimit:10;"/><line x1="399.351" y1="1479.398" x2="399.351" y2="1555.87" style="stroke:#000;stroke-width:1;"/><polygon points="395.351,1545.87,399.351,1555.87,403.351,1545.87,399.351,1549.87" fill="#000" style="stroke:#000;stroke-width:1;stroke-linejoin:miter;stroke-miterlimit:10;"/><line x1="399.351" y1="2044.882" x2="399.351" y2="2064.882" style="stroke:#000;stroke-width:1;"/><polygon points="395.351,2054.882,399.351,2064.882,403.351,2054.882,399.351,2058.882" fill="#000" style="stroke:#000;stroke-width:1;stroke-linejoin:miter;stroke-miterlimit:10;"/><line x1="399.351" y1="1939.858" x2="399.351" y2="1990.13" style="stroke:#000;stroke-width:1;"/><polygon points="395.351,1980.13,399.351,1990.13,403.351,1980.13,399.351,1984.13" fill="#000" style="stroke:#000;stroke-width:1;stroke-linejoin:miter;stroke-miterlimit:10;"/><line x1="308.47" y1="2158.259" x2="308.47" y2="2194.186" style="stroke:#000;stroke-width:1;"/><polygon points="304.47,2184.186,308.47,2194.186,312.47,2184.186,308.47,2188.186" fill="#000" style="stroke:#000;stroke-width:1;stroke-linejoin:miter;stroke-miterlimit:10;"/><line x1="308.47" y1="2231.563" x2="308.47" y2="2251.563" style="stroke:#000;stroke-width:1;"/><polygon points="304.47,2241.563,308.47,2251.563,312.47,2241.563,308.47,2245.563" fill="#000" style="stroke:#000;stroke-width:1;stroke-linejoin:miter;stroke-miterlimit:10;"/><line x1="434.193" y1="2158.259" x2="434.193" y2="2194.186" style="stroke:#000;stroke-width:1;"/><polygon points="430.193,2184.186,434.193,2194.186,438.193,2184.186,434.193,2188.186" fill="#000" style="stroke:#000;stroke-width:1;stroke-linejoin:miter;stroke-miterlimit:10;"/><line x1="434.193" y1="2231.563" x2="434.193" y2="2251.563" style="stroke:#000;stroke-width:1;"/><polygon points="430.193,2241.563,434.193,2251.563,438.193,2241.563,434.193,2245.563" fill="#000" style="stroke:#000;stroke-width:1;stroke-linejoin:miter;stroke-miterlimit:10;"/><line x1="381.201" y1="2146.259" x2="410.193" y2="2146.259" style="stroke:#000;stroke-width:1;"/><polygon points="400.193,2142.259,410.193,2146.259,400.193,2150.259,404.193,2146.259" fill="#000" style="stroke:#000;stroke-width:1;stroke-linejoin:miter;stroke-miterlimit:10;"/><line x1="399.351" y1="2102.259" x2="399.351" y2="2119.259" style="stroke:#000;stroke-width:1;"/><line x1="399.351" y1="2119.259" x2="308.47" y2="2119.259" style="stroke:#000;stroke-width:1;"/><line x1="308.47" y1="2119.259" x2="308.47" y2="2134.259" style="stroke:#000;stroke-width:1;"/><polygon points="304.47,2124.259,308.47,2134.259,312.47,2124.259,308.47,2128.259" fill="#000" style="stroke:#000;stroke-width:1;stroke-linejoin:miter;stroke-miterlimit:10;"/><line x1="458.193" y1="2146.259" x2="525.073" y2="2146.259" style="stroke:#000;stroke-width:1;"/><line x1="525.073" y1="2146.259" x2="525.073" y2="2189.222" style="stroke:#000;stroke-width:1;"/><polygon points="521.073,2179.222,525.073,2189.222,529.073,2179.222,525.073,2183.222" fill="#000" style="stroke:#000;stroke-width:1;stroke-linejoin:miter;stroke-miterlimit:10;"/><line x1="525.073" y1="2226.599" x2="525.073" y2="2251.563" style="stroke:#000;stroke-width:1;"/><polygon points="521.073,2241.563,525.073,2251.563,529.073,2241.563,525.073,2245.563" fill="#000" style="stroke:#000;stroke-width:1;stroke-linejoin:miter;stroke-miterlimit:10;"/><line x1="308.47" y1="2251.563" x2="525.073" y2="2251.563" style="stroke:#000;stroke-width:1;"/><line x1="399.351" y1="2339.211" x2="399.351" y2="2359.211" style="stroke:#000;stroke-width:1;"/><polygon points="395.351,2349.211,399.351,2359.211,403.351,2349.211,399.351,2353.211" fill="#000" style="stroke:#000;stroke-width:1;stroke-linejoin:miter;stroke-miterlimit:10;"/><line x1="399.351" y1="2396.587" x2="399.351" y2="2421.135" style="stroke:#000;stroke-width:1;"/><polygon points="395.351,2411.135,399.351,2421.135,403.351,2411.135,399.351,2415.135" fill="#000" style="stroke:#000;stroke-width:1;stroke-linejoin:miter;stroke-miterlimit:10;"/><line x1="399.351" y1="2251.563" x2="399.351" y2="2301.834" style="stroke:#000;stroke-width:1;"/><polygon points="395.351,2291.834,399.351,2301.834,403.351,2291.834,399.351,2295.834" fill="#000" style="stroke:#000;stroke-width:1;stroke-linejoin:miter;stroke-miterlimit:10;"/><line x1="399.351" y1="2458.511" x2="399.351" y2="2505.059" style="stroke:#000;stroke-width:1;"/><polygon points="395.351,2495.059,399.351,2505.059,403.351,2495.059,399.351,2499.059" fill="#000" style="stroke:#000;stroke-width:1;stroke-linejoin:miter;stroke-miterlimit:10;"/><g class="legend" data-source-line="124"><rect x="10" y="2541.059" width="136.657" height="135.631" fill="none" style="stroke:#000;stroke-width:1;" rx="6" ry="6"/><text x="18.178" y="2564.299" fill="#000" font-size="14" textLength="25.76" font-weight="700" font-family="'Noto Sans CJK KR'">색상</text><text x="50.294" y="2564.299" fill="#000" font-size="14" textLength="25.76" font-weight="700" font-family="'Noto Sans CJK KR'">의미</text><rect x="15" y="2568.331" width="32.116" height="20.272" fill="#DCFCE7" style="stroke:none;"/><text x="15" y="2584.571" fill="#000" font-size="14" font-family="'Noto Sans CJK KR'"> </text><text x="50.252" y="2584.571" fill="#000" font-size="14" textLength="80.416" font-family="'Noto Sans CJK KR'">결정론적 분석</text><rect x="15" y="2588.603" width="32.116" height="20.272" fill="#F3E8FF" style="stroke:none;"/><text x="15" y="2604.842" fill="#000" font-size="14" font-family="'Noto Sans CJK KR'"> </text><text x="50.252" y="2604.842" fill="#000" font-size="14" textLength="55.468" font-family="'Noto Sans CJK KR'">LLM 추론</text><rect x="15" y="2608.874" width="32.116" height="20.272" fill="#FFEDD5" style="stroke:none;"/><text x="15" y="2625.114" fill="#000" font-size="14" font-family="'Noto Sans CJK KR'"> </text><text x="50.252" y="2625.114" fill="#000" font-size="14" textLength="54.656" font-family="'Noto Sans CJK KR'">실행 검증</text><rect x="15" y="2629.146" width="32.116" height="20.272" fill="#ECFDF5" style="stroke:none;"/><text x="15" y="2645.386" fill="#000" font-size="14" font-family="'Noto Sans CJK KR'"> </text><text x="50.252" y="2645.386" fill="#000" font-size="14" textLength="88.27" font-family="'Noto Sans CJK KR'">증거·환각 통제</text><rect x="15" y="2649.418" width="32.116" height="20.272" fill="#EDE9FE" style="stroke:none;"/><text x="15" y="2665.658" fill="#000" font-size="14" font-family="'Noto Sans CJK KR'"> </text><text x="50.252" y="2665.658" fill="#000" font-size="14" textLength="88.27" font-family="'Noto Sans CJK KR'">결과·정량 평가</text><line x1="15" y1="2548.059" x2="141.657" y2="2548.059" style="stroke:#000;stroke-width:1;"/><line x1="15" y1="2568.331" x2="141.657" y2="2568.331" style="stroke:#000;stroke-width:1;"/><line x1="15" y1="2588.603" x2="141.657" y2="2588.603" style="stroke:#000;stroke-width:1;"/><line x1="15" y1="2608.874" x2="141.657" y2="2608.874" style="stroke:#000;stroke-width:1;"/><line x1="15" y1="2629.146" x2="141.657" y2="2629.146" style="stroke:#000;stroke-width:1;"/><line x1="15" y1="2649.418" x2="141.657" y2="2649.418" style="stroke:#000;stroke-width:1;"/><line x1="15" y1="2669.69" x2="141.657" y2="2669.69" style="stroke:#000;stroke-width:1;"/><line x1="15" y1="2548.059" x2="15" y2="2669.69" style="stroke:#000;stroke-width:1;"/><line x1="47.116" y1="2548.059" x2="47.116" y2="2669.69" style="stroke:#000;stroke-width:1;"/><line x1="141.657" y1="2548.059" x2="141.657" y2="2669.69" style="stroke:#000;stroke-width:1;"/></g><?plantuml-src ZLTRJnj95dxthwXbNcOqmoOO29cGpGgCdRbaHWX6-nHfrDXbt8lTxMst2MWJoIJDYDigP8CJmzYiBH5OLaHhhZOIUV7FSLN_X_rETRTZ9sILA8bnrJcdpkKxtpdymKxn36VPjAOReToSRcGrIykm6Iq-DskPUICHCTEcnRw8gJzT4hcKbZ0VwSOiIshf7E-wKMfnqpAunGR2NHS9djJoQJjc6lRF6Xxj-zcqJJQj6JaM-U57zkDKNvUm5hVrUTrUP7yFCJR-aJktOsEn2DsOLe9R_kdWuD30y31EwGd_x6PiO2GyXhC9NSkOHk9ZKz7OO6IaIw3RuiIt8oCtR-5osjQim6Hu-DPWT1o7qOwHpj6u5gZU6XePkZqUUX8AsRgTvcpiUzPkraMznEIxBV6opDn_hiY3bLP3EiTYxGqJ-qToRSzTEcBom17h_sRozQQidCcguwurGw4SEH0A8Jamfvi6wvExowBw1lh55GWnMItAu-K-zaNqPYmSYwgytV5DYPCjMNQ-OPDJBA4dazymkL-HpvQOPsAK9ACBF9udmvDcMeylClci0iSU6k8_4BbiDTeN6swnt6hOUeQRURlLi7Y2QWHFsgTLF3vAeNQvrpwfurJKSBV4skT7ibPduiAHJWK-JaHYaUY8v-Faefs2mk0V1uROsFGl26ZzI9nUjHgHs7qcBxRaHLbv-1TkvM2P9rZ4J71stzAoAMMOt7HBJSX1jrAIjJDybbRaThFLS9StAAjhJTO-AxHF7MNf0L_GurgQQKOyXL9zpMO83p0yq9yoiqmSDSN16z-q2iimRSuiVJPbG_tkp3tK4Yc7NBjUG9tUYd-jie6xDsRkuVh1WvzGkI1Y-VH8hk_9YgCYQTRaUjbzkYSFe5PSG-AWu8Khzj_wwMcVNldPTqj5m0OXqHjkiKfc80EaXBYHOEHLJye9OlM2TFQOt7i1it1oILPUa1aF2CXyR31wEnRpCW_4pnfcJi-noRHcKB_EXnyQI9IiRefJXrbvezL0IsPR3VGkj_15TRtSBh1suwfzZFYgPU1lD0HpUf9zINROVGtPSdyxHo1__eg1O0ps9Uhn5MJmQ4nVu8d-f3xFsMCshUpXXobW2WN8eBAYLWRiNXwBMeLvlW2qkQncnrDKFGwsWRqYubcHfRsFhOAFqiHVIjW0ticvEruz08ngqTqk8hb1uxKQulasogAEtiF5gyL3uslckv8qu_aSItCZfp0K0SLO-apU1e1YEfu14uhJ5sxnyA4XVqVd0dpeENbPQZMc-JotYClS5sMvLt2tjvI9xnQp9hA3_2jZwAPEry7LzZ71-A20lpV06g9ULDcerydXPR7_ZfbG0R5qjT_du3JiuzHJOyDUYWbQjhPW6cPcaShhameO2mxByXMAmcIv2cVSOaaSdacdJD3Thm0417UnLHULA-OM7Rcp1QBmAqTORfyK8CVSLwkKQBo3DdHt_j45OK9Eq2_A8hahBWgoTWnJ-F8XZBfPi5g6376Ct3sYfvwjzgbnDHATK2X7edzPp09RqOKiHWsKflZVyZnd-uwDUZBIgRhFAcApx1E5EDXWyhmiDWeih5Y1KBFxnfTsYsTY_T8FKedk7dc8OUxlYF2ahYAl7ylrAgay2Nq4Mn-Q5FjtgDYD212YM4bU78hd6wZoVvju1gOObRzM0AIkISMTe14hJRbpIAqULuO2vmVSdGsqam8GyBHJ5zMzLYDhcJESeLJov2svxxvUWVRe__KIF8OQTbMeK-nht2A57fXYb259As9j2zCPdOI2s2Z2zK7rL3YWDEzvhsYgnD69YM6_nDTs4-4uRcOo6e26__Ga5PqlK9zb0ZPHgbX14ZFcWjVYlcF-UvxCaq_nZk8yoqpgQP0dAYzEpn2eEAmpCsltwmQJQvS8KMnk8l1h0-q5im8XWJamIe56e-5ek1CebRnxj5h4d1RrftZke8kOPsJqlNZSDmQQpIxsvxABHBn06ZTuJvHUd9-857Qq6ImXEWtW6zIu_GRd2VLb9ct6v_0J3RjoLQqvDTy13p_1vwVWzJcyDUZprjZtTEY1GWt4WmtnSazibWA446y1xyGvFdqfpY6s0tTvCpVOPZniejSk0UL3vj6kcjPgHrClAS1TFt2zNg3LgzqeWzOnGBPBxVeIJJyG4orZaTX4p4FfdQcyGTjJT5vFS2FEEsIVC_DM74varURLQZmohRcqgIMmOscFM4hBfHZXgdRcBMg1EerPsX4TOcPlq82tPF4TFXKd82n572g4fqTgGYYgLRUzMVG63N7x1pXLvufeBC_zN-EcaTIj34zuTA4wNT5BeED_Kphyhpnk1wAukbWXUhjmr6q7KAC147htnpPjWUxpLJX4gPo8VjlPQykE-xe4mB-FLPQMt5Uq3f-NvMyRL4gaX197fQSSgMoh5AevTCN6VqL8_coR7EgF3MDI3-1VkDNmE3JWIQ2ZVRxfPrzBvpKC_Nxp4NN2h9bEaBw_g8WLHrHGW2cE_afZMpRda95Wq7pcX1xoaJuS6CLWURsiiEwKvAkpphP6hKzxXzpTb2U0RGbAmMyLWISUiXKKL4VK2zXva0XLT908tlCot8Nmd6rcGw4qdwMZD4-Ihu__X0okqYyDz5EbXEd47jFvNN-PlmTMwI4cVnxwGjxUIK9Oa6aPXbJdJb4vtVMGV73jzP2wLltsGPTrn1G-V3SKT7hYWnZ2yOBw7m00?></g></svg>